<?xml version="1.0" standalone="no"?><!DOCTYPE svg PUBLIC "-//W3C//DTD SVG 1.1//EN" "http://www.w3.org/Graphics/SVG/1.1/DTD/svg11.dtd"><svg t="1730174427531" class="icon" viewBox="0 0 1024 1024" version="1.1" xmlns="http://www.w3.org/2000/svg" p-id="4162" xmlns:xlink="http://www.w3.org/1999/xlink" width="200" height="200"><path d="M1024 416a48 48 0 0 0-48-48H656.752L557.904 65.92a48.032 48.032 0 0 0-91.792 0L367.248 368H48a48 48 0 0 0-28.128 86.88L277.76 641.44l-99.344 303.536a48 48 0 0 0 73.712 53.904h0.016L512 810.912 771.872 998.88h0.016a48 48 0 0 0 73.712-53.888L746.256 641.44l257.888-186.56A47.952 47.952 0 0 0 1024 416z" fill="#2c2c2c" p-id="4163"></path></svg>